<?xml version="1.0" encoding="utf-8"?>
<!-- Generator: Adobe Illustrator 22.1.0, SVG Export Plug-In . SVG Version: 6.00 Build 0)  -->
<svg version="1.1" id="Layer_1" xmlns="http://www.w3.org/2000/svg" xmlns:xlink="http://www.w3.org/1999/xlink" x="0px" y="0px"
	 viewBox="0 0 422 410.3" style="enable-background:new 0 0 422 410.3;" xml:space="preserve">
<style type="text/css">
	.st0{fill:#0B0A09;}
	.st1{fill:#684322;}
	.st2{fill:#512D09;}
	.st3{fill:#412407;}
	.st4{fill:#929191;}
	.st5{display:none;}
	.st6{display:inline;fill:#1F130A;}
	.st7{display:inline;fill:#674221;}
	.st8{display:inline;fill:#502D09;}
	.st9{display:inline;fill:#412407;}
	.st10{display:inline;fill:#929191;}
	.st11{display:inline;fill:#878786;}
</style>
<g>
	<path class="st0" d="M408.8,318.6c-1.1-13.1-2.2-26.2-3.6-39.3c-1.7-16.2-3.4-32.4-5.3-48.6c-2.2-19.2-3.2-38.6-7.4-57.4
		c-7.5-33.5-27.1-57.6-61.2-67.4c-7.8-2.2-16.8-4.1-24.5-2.5c-49.9,11.1-99.5,23.2-149.3,34.8c-5.9,1.4-12.1,1.9-18.2,2.4
		c-7.2,0.7-13.5,3.3-19,8c-10,8.6-12.9,21-18.1,32.2c-0.4,0.8,0.1,1.9,0.2,2.9c0.3,2.4,0.9,4.9,1,7.3c1.2,43.6,2.5,87.3,3.5,130.9
		c0.1,5.9,2,9.8,7.1,13.1c22.9,14.9,45.6,30.1,68.1,45.6c7.4,5.1,13.9,11.3,20.8,17h5c2-1.1,3.9-2.3,5.9-3.3
		c11.3-5.5,22.2-12.3,34-16.2c50.9-17.1,102.2-33.3,153.3-49.9C407.8,326.3,409.3,324.4,408.8,318.6z M391.4,324.9
		c-6.2,1.9-12.3,3.8-18.5,5.7c-46.3,15.1-92.6,30.2-138.9,45.2c-0.9,1.1-1.5,2.6-2.7,3.2c-7.7,3.9-15.5,7.5-23.3,11.2
		c-0.5,0.2-1.4-0.2-2.2-0.3c-8.2-5.9-16.4-11.8-24.6-17.7c-7.7-5-15.5-10-23.2-15.2c-6.9-4.6-13.6-9.3-20.4-14
		c-7.7-5.1-15.5-10-23.1-15.3c-1-0.7-1.4-2.9-1.5-4.5c-0.4-18.9-0.7-37.9-1.1-56.8c-0.3-14.5-0.7-28.9-1-43.4
		c-0.3-12.8-0.6-25.6-0.8-38.3c0.3-2.4,0-5,0.9-7.1c3.5-7.4,6.8-15.1,11.5-21.7c5.4-7.6,13.6-10,22.9-8.3c1.5,0.3,3,0.2,4.5,0.3
		c4.5-1.6,9-3.6,13.7-4.8c22.4-5.4,44.8-10.5,67.1-15.8c25.9-6.1,51.8-12.3,77.8-18.1c4-0.9,8.6-0.2,12.8,0.6
		c10.5,2.2,21,4.9,29.7,11.8c25.8,17.4,36.6,42.7,38.1,72.9c0.3,0.4,0.6,0.7,0.8,1.1c1,8.4,2,16.8,3,25.1
		c1.2,10.2,2.6,20.3,3.7,30.5c1,9,1.6,18.1,2.4,27.2c1.2,14,2.4,28,3.7,42.8C399.1,322.5,395.2,323.7,391.4,324.9z"/>
	<path class="st1" d="M369,263.3c-1-19.2-2-38.3-3-57.5c-0.1-2.8,0.3-4.6,3.7-5.2c6.8-1.3,13.5-3.2,20.2-4.8
		c-0.3-0.4-0.6-0.7-0.8-1.1c-13.2,2.9-26.5,5.8-39.7,8.8c-46.4,10.7-92.9,21.5-139.3,32.3c-9.2,2.1-8.9,2.1-11-6.8
		c-2.5-10.8-5.4-21.4-8.2-32.2c-3.3-6.3-6.5-12.5-9.9-18.8c-6.9-12.9-16.2-23.3-29.9-29.2c-0.4-0.2-0.8-0.6-1.1-0.9
		c-1.5-0.1-3,0-4.5-0.3c-9.3-1.7-17.5,0.7-22.9,8.3c-4.7,6.6-8,14.3-11.5,21.7c-1,2-0.7,4.7-0.9,7.1c4.7,3,9.3,6.1,14.1,8.9
		c5.3,3.1,6.8,7.3,6.9,13.5c0.5,21,1.8,42,2.8,63c0.7,13.9,1.3,27.8,2,41.7c0.5,10.4,1.1,20.8,1.7,31.2c6.8,4.7,13.6,9.4,20.4,14
		c7.7,5.1,15.4,10.1,23.2,15.2c-1.6-46.6-3.1-93.2-4.8-141.3c7.7,5.3,14.1,9.6,20.5,13.9c9.3-2.3,18.6-4.6,28.4-7
		c0.6,3.1,1.4,5.9,1.5,8.7c0.5,9.3,0.6,18.6,1.1,27.8c1.2,20.5,2.6,40.9,3.9,61.4c0.4,5.9,0.7,11.9,1,17.8c0.4,7.4,0.7,14.9,1,22.3
		c46.3-15.1,92.6-30.2,138.9-45.2c-1-17.8-1.9-35.7-2.9-53.5C369.8,272.5,369.3,267.9,369,263.3z M193,234.8
		c-10.2-6.8-20.5-13.4-30.5-20.3c-13.7-9.4-27.2-19.1-40.9-28.5c-2.8-1.9-3.9-3.6-2.3-6.8c2.3-4.6,3.7-9.8,6.8-13.7
		c11-13.9,23.1-11.7,35.8-1.1c11.4,9.5,19,21.9,23.3,36.2c3.3,11,6.5,22,9.8,33C194.3,234,193.7,234.4,193,234.8z M319.1,293.1
		c-16.2,16.6-39.4,11.4-46.8-10.6c-2-6-2.4-12.6-3.3-19c-1-7.4,3.5-11.9,8.9-15.5c11.6-7.7,24.1-12.6,38.3-12.2c2,0,4-0.1,6,0
		c8.8,0.4,12.1,2.8,12.5,11.5C335.5,264.4,331.5,280.4,319.1,293.1z"/>
	<path class="st2" d="M389.1,194.7c-13.2,2.9-26.5,5.8-39.7,8.8c-46.4,10.7-92.9,21.5-139.3,32.3c-9.1,2.1-8.9,2.1-11-6.7
		c-2.5-10.8-5.4-21.4-8.2-32.2c7.2-3.3,14.5-6.5,21.6-9.9c10.9-5.2,21.7-10.6,32.7-15.7c12.2-5.6,24.6-10.9,36.8-16.5
		c15.2-7,30.4-14.1,45.6-21.3c7.9-3.7,15.6-7.8,23.4-11.7C376.9,139.2,387.7,164.5,389.1,194.7z"/>
	<path class="st3" d="M351,121.8c-7.8,3.9-15.5,8-23.4,11.7c-15.1,7.2-30.3,14.3-45.6,21.3c-12.2,5.6-24.6,10.8-36.8,16.5
		c-11,5.1-21.8,10.5-32.7,15.7c-7.2,3.4-14.4,6.6-21.6,9.9c-3.3-6.3-6.5-12.5-9.9-18.8c-6.9-12.9-16.2-23.3-30-29.2
		c-0.4-0.2-0.8-0.6-1.1-0.9c4.5-1.6,9-3.6,13.7-4.8c22.3-5.4,44.8-10.5,67.1-15.8c25.9-6.1,51.8-12.3,77.8-18.1
		c4-0.9,8.6-0.2,12.8,0.6C331.9,112.2,342.4,114.8,351,121.8z"/>
	<path class="st2" d="M197,244.8c9.3-2.3,18.6-4.6,28.4-7.1c0.6,3.1,1.4,5.9,1.5,8.7c0.5,9.3,0.6,18.6,1.1,27.8
		c1.2,20.5,2.6,40.9,3.9,61.4c0.4,5.9,0.7,11.9,1,17.8c0.4,7.4,0.7,14.9,1,22.3c-0.9,1.1-1.5,2.6-2.7,3.2
		c-7.7,3.9-15.5,7.6-23.3,11.2c-0.5,0.3-1.4-0.2-2.2-0.3c-0.6-4.7-1.5-9.5-1.9-14.2c-0.8-12.1-1.4-24.1-2-36.2
		c-1.1-22.3-2-44.7-3.1-67C198.5,263.3,197.7,254.1,197,244.8z"/>
	<path class="st2" d="M372.9,330.7c-1-17.8-1.9-35.7-2.9-53.5c-0.3-4.6-0.8-9.2-1-13.8c-1-19.2-2-38.3-3-57.5
		c-0.2-2.8,0.3-4.6,3.7-5.2c6.8-1.3,13.5-3.2,20.2-4.8c1,8.4,2,16.7,3,25.1c1.2,10.2,2.6,20.3,3.7,30.5c1,9,1.6,18.1,2.4,27.2
		c1.2,14,2.4,28,3.7,42.8c-3.6,1.1-7.5,2.4-11.3,3.6C385.2,326.8,379.1,328.7,372.9,330.7z"/>
	<path class="st3" d="M110.1,184.7c4.7,3,9.3,6.1,14.1,8.9c5.3,3.1,6.8,7.3,6.9,13.5c0.5,21,1.8,42,2.8,63.1
		c0.7,13.9,1.3,27.8,2,41.7c0.5,10.4,1.1,20.8,1.7,31.2c-7.7-5.1-15.5-10-23.1-15.3c-1-0.7-1.4-2.9-1.5-4.5
		c-0.4-18.9-0.7-37.9-1.1-56.8c-0.3-14.5-0.7-28.9-1-43.4C110.7,210.3,110.4,197.5,110.1,184.7z"/>
	<path class="st3" d="M197,244.8c0.7,9.2,1.5,18.5,2,27.7c1.1,22.3,2,44.7,3.1,67c0.6,12.1,1.2,24.1,2,36.2
		c0.3,4.8,1.2,9.5,1.9,14.2c-8.2-5.9-16.4-11.8-24.6-17.7c-1.6-46.6-3.1-93.2-4.8-141.3C184.3,236.2,190.7,240.5,197,244.8z"/>
	<path class="st4" d="M334.7,247.3c-0.4-8.7-3.7-11.1-12.5-11.5c-2-0.1-4,0-6,0c-14.2-0.4-26.8,4.5-38.3,12.2
		c-5.4,3.6-9.9,8.2-8.9,15.5c0.9,6.4,1.2,13,3.3,19c7.4,22,30.6,27.2,46.8,10.6C331.5,280.4,335.5,264.4,334.7,247.3z M296.3,284.7
		c0.8-3.9,1.8-6.7,1.9-9.6c0.2-4.5,2.5-9.1-1.2-13.7c-0.9-1.1,1.2-5.9,3.1-7.5c1.9-1.5,5.9-2,7.9-1c1.6,0.8,2.9,5.6,1.9,7.1
		c-2.7,4.2-0.6,6.8,1.3,9.9c1.6,2.7,3.1,5.4,5.2,9C309.6,280.9,303.4,282.7,296.3,284.7z"/>
	<path class="st3" d="M193,234.8c-10.2-6.8-20.5-13.4-30.5-20.4c-13.7-9.4-27.2-19.1-40.9-28.5c-2.8-1.9-3.9-3.6-2.3-6.8
		c2.3-4.6,3.7-9.8,6.8-13.7c11-13.9,23.1-11.7,35.8-1.1c11.4,9.5,19,21.9,23.3,36.2c3.3,11,6.5,22,9.8,33
		C194.3,234,193.7,234.4,193,234.8z"/>
	<path class="st0" d="M316.3,279c-6.7,1.9-12.9,3.7-20.1,5.7c0.8-3.9,1.8-6.7,1.9-9.6c0.2-4.5,2.5-9.1-1.2-13.7
		c-0.9-1.1,1.2-5.9,3.1-7.5c1.9-1.5,5.9-2.1,7.9-1c1.6,0.8,2.9,5.6,1.9,7.1c-2.7,4.2-0.6,6.8,1.3,9.9
		C312.8,272.7,314.3,275.4,316.3,279z"/>
</g>
<g class="st5">
	<path class="st6" d="M408.4,318.2c-3.9-39.4-8-78.9-11.7-118.3c-0.6-6.4-2.8-10-8.8-13.3c-28.3-15.5-56.3-31.7-84.3-47.9
		c-2.2-1.3-4.2-3.8-5.1-6.1C284.9,96,271.6,59.4,258.2,22.8c-2.7-7.4-4.3-8.3-12.3-7.5c-54.2,5.5-108.4,10.9-162.6,16.7
		c-10.3,1.1-20.7,0.8-30.6,6.7c-50,29.4-50.2,88.4-13,122.5C56.4,176.4,76,184.5,98.2,187c3,0.3,4.8,0.8,4.9,4.5
		c1.1,44,2.5,87.9,3.5,131.9c0.1,5,1.7,8.5,5.9,11.2c10.7,6.8,21.4,13.6,31.7,20.9c20.1,14.2,42.1,25.8,59.8,43.3h2
		c2.3-1.3,4.5-2.8,6.9-3.8c13.2-5.4,24.9-13.9,38.6-18.3c50.1-16,100.1-32.4,150.1-48.7C407.7,326,409,324.2,408.4,318.2z
		 M396.6,323.2c-8,1.9-15.8,4.8-23.7,7.3c-28.1,9.1-56.2,18.3-84.2,27.4c-16.1,5.2-32.2,10.5-48.3,15.8c-2,0.7-4.2,0.9-6.3,1.3
		c-1,1.4-1.7,3.4-3.1,4.1c-8.2,4.1-16.6,7.8-25,11.7c-8.7-6.2-17.3-12.5-26-18.7c-14.3-9.7-28.7-19.5-43-29.2
		c-7.6-4.9-15.3-9.8-22.8-14.8c-0.9-0.6-1-2.7-1.1-4.1c-0.4-15.8-0.7-31.5-1.1-47.3c-0.6-23.6-1.3-47.1-2-70.7
		c-0.2-7.1-0.5-14.2-0.7-21.3c-2.3-1.2-4.6-3.4-7-3.5c-12.6-1-24.7-3.8-36-9.4c-25.2-12.3-42.2-31.6-46-59.8
		c-3.7-28,8.8-49.8,31.9-65.2c8.5-5.7,17.7-6.9,27.3-7.8c14.7-1.4,29.3-3.1,44-4.6c11.1-1.2,22.1-2.2,33.2-3.3
		c15.5-1.6,31-3.2,46.5-4.8c14-1.4,28.1-2.7,42.1-4.2c4-0.4,6.1,0.7,7.6,4.9c12.8,35.8,26.6,71.4,38.7,107.5
		c3.2,9.7,10.9,11.2,17.3,15c24.9,14.7,50.2,28.7,75.4,43.1c1.7,1,3.1,2.4,4.7,3.7c1,7,2,14,2.9,21c1.6,13.5,3.2,26.9,4.7,40.4
		c0.9,7.7,1.7,15.5,2.4,23.2c1,11.4,1.9,22.8,3,34.1C402.4,319.1,401.8,322,396.6,323.2z"/>
	<path class="st7" d="M370.1,283c-0.7-11.5-1.4-23.1-2-34.6c-0.7-14.1-1.5-28.1-1.9-42.2c-0.1-1.8,1.1-4.8,2.3-5.1
		c6.8-2.1,13.7-3.5,20.6-5.2c-1.5-1.2-3-2.7-4.7-3.7c-25.1-14.3-50.5-28.3-75.4-43.1c-6.4-3.8-14.1-5.2-17.3-15
		C279.6,98.1,265.8,62.5,253,26.7c-1.5-4.2-3.6-5.3-7.6-4.9c-14,1.5-28,2.8-42.1,4.2c-15.5,1.6-31,3.2-46.5,4.8
		c-11.1,1.1-22.1,2.2-33.2,3.3c-14.7,1.5-29.3,3.2-44,4.6c-9.6,0.9-18.9,2.1-27.3,7.8c-23.1,15.5-35.6,37.2-31.9,65.2
		c3.7,28.2,20.8,47.5,46,59.8c11.3,5.5,23.4,8.4,36,9.4c2.4,0.2,4.7,2.3,7,3.5c6.5,4.5,13,8.9,19.5,13.5c0.8,0.6,1.2,2,1.2,3.1
		c0.7,11.6,1.3,23.2,2,34.8c1,16.5,2,33.1,2.9,49.6c0,0.2,0,0.3,0,0.5c0.7,18.9,1.3,37.8,2,56.8c14.3,9.8,28.7,19.5,43,29.2v0
		c0.2-6,0.5-12,0.6-18.1c0-1.1-0.4-2.3-0.5-3.4c-0.4-15.9-0.7-31.9-1.2-47.8c-0.6-20-1.3-40.1-2-60.1c-0.1-3.4-0.7-6.8-1.2-11.5
		c7.9,5.1,14.6,9.4,21.3,13.7c9.3-2.3,18.6-4.7,28.1-7.1c0.4,0.8,0.8,1.4,0.8,1.9c0.4,9.4,0.6,18.9,1.2,28.3
		c1.2,18.8,2.6,37.6,3.9,56.5c0.5,7.1,0.8,14.2,1.1,21.4c0.4,8.5,0.7,16.9,1.1,25.3c0.1,1.3,0.6,2.5,1,3.8c2.1-0.4,4.3-0.6,6.3-1.3
		c16.1-5.2,32.2-10.5,48.3-15.8c28.1-9.2,56.2-18.3,84.2-27.4c-0.9-15.7-1.8-31.4-2.7-47C370.1,283.3,370.1,283.2,370.1,283z
		 M84.8,166.7c-16.6-3.5-31.3-10.8-42.9-23.6c-0.9-1-1.4-2.2-2.1-3.3c-3.6-6.3-8.4-12.2-10.4-19c-6.2-20.9-1.1-39.5,14.7-54.5
		c5.2-5,11.7-8.6,18-13.2c0.9,1.7,1.5,2.5,1.8,3.5c5.6,18.1,11.1,36.1,16.6,54.2c0.8,2.5,1,5.2,1.6,7.8c1.9,5.2,3.9,10.4,5.6,15.7
		c3.5,10.9,6.7,21.8,10.4,33.7C93.2,167.6,88.9,167.6,84.8,166.7z M320.9,290.8c-7.1,8.8-16.5,13.2-27.7,11.7
		C282.1,301,275.7,293,272,283c-2.8-7.5-5.1-15.3-3-23.3c0.9-3.3,2.6-6.9,5.2-9.1c12.2-10.3,26.6-14.8,42.3-15.1
		c2.9,0.2,5.8,0.1,8.6,0.5c6,0.9,8.7,3.8,9.1,9.9C335.3,262.6,331.5,277.7,320.9,290.8z M297.4,210.2c-1.4,0.4-2.9,0.5-4.4,0.7
		c-10.5,2.9-20.9,6-31.5,8.8c-12.9,3.5-26,6.7-38.9,10.1c-7.5,1.9-15,4.1-22.6,5.7c-1.9,0.4-4.6-0.4-6.3-1.6
		c-20.8-15-41.5-30.2-62.3-45.4c-1.4-1.1-2.7-2.4-4.9-4.5c5-1.2,9.1-2.1,13.1-3.2c2.2-0.6,4.2-1.8,6.3-2.8c-1.3-3.3-2.6-6.7-4-10
		c-4.6,0.5-9.2,0.9-13.7,1.4c-1.5,0.2-2.9,0.4-4.4,0.7c-4.3,1.2-8.5,2.8-12.9,3.5c-1,0.2-3.2-1.8-3.7-3.2
		c-3.3-10.1-6.3-20.3-9.4-30.4C92,121.2,86,102.6,80,84c-3.5-10.9-6.9-21.8-10.3-32.7c-0.4-1.2-0.4-2.5-0.7-3.9
		c9-0.9,17.5-1.7,26.1-2.5c14.8-1.3,29.6-2.6,44.4-3.9c9.2-0.8,18.5-1.4,27.7-2.1c15.1-1.3,30.3-2.7,45.4-3.9
		c7.1-0.6,14.2-0.8,21.3-1.1c1.6-0.3,3.2-0.7,4.9-1c3.9-0.7,6,0.7,7.3,4.7c10.2,31.2,20.5,62.4,30.8,93.6c0.5,1.5,0.8,3.1,1.2,4.8
		c-7.4,2.1-14.3,4.1-21.2,6c1.6,2.9,3.3,5.7,4.9,8.5h0v0c0.1,0,0.2,0,0.3,0c0.3,0,0.6,0,0.8,0c0.3,0,0.6,0,0.8,0.1
		c0.3,0,0.6,0,0.9,0.1c0.8,0.1,1.7,0.1,2.5-0.1c5.7-1.3,11.4-3,17.1-4.3c1.1-0.3,2.4,0.3,3.6,0.5c27.4,14.4,54.7,28.8,82.1,43.2
		c-0.1,0.5-0.2,0.9-0.3,1.4c-9.9,2.6-19.7,5.1-29.6,7.7C325.9,202.7,311.6,206.5,297.4,210.2z"/>
	<path class="st8" d="M197,244.9c9.3-2.3,18.6-4.7,28.1-7.1c0.4,0.8,0.8,1.4,0.8,1.9c0.4,9.4,0.6,18.9,1.2,28.3
		c1.2,18.8,2.6,37.6,3.9,56.5c0.5,7.1,0.8,14.2,1.1,21.3c0.4,8.4,0.7,16.9,1.1,25.3c0.1,1.3,0.6,2.5,1,3.8c-1,1.4-1.7,3.4-3.1,4.1
		c-8.2,4.1-16.6,7.8-25,11.7c-0.7-2.8-1.7-5.7-1.9-8.5c-0.8-13.4-1.4-26.8-2.1-40.2c-0.6-11.9-1.4-23.8-2-35.7
		C199,285.9,198,265.4,197,244.9z"/>
	<path class="st8" d="M372.9,330.6c-0.9-15.7-1.8-31.4-2.7-47.1c0-0.2-0.1-0.3-0.1-0.5c-0.7-11.5-1.4-23.1-2-34.7
		c-0.7-14.1-1.5-28.1-1.9-42.2c-0.1-1.7,1.1-4.7,2.3-5.1c6.8-2.1,13.7-3.6,20.6-5.2c1,7,2,14,2.9,21c1.6,13.5,3.2,27,4.7,40.4
		c0.9,7.7,1.6,15.5,2.4,23.2c1,11.4,1.9,22.8,3,34.1c0.4,4.5-0.1,7.3-5.4,8.6C388.5,325.2,380.8,328.1,372.9,330.6z"/>
	<path class="st9" d="M109.2,184.6c6.5,4.5,13,8.9,19.5,13.5c0.8,0.6,1.2,2,1.2,3.1c0.7,11.6,1.3,23.2,2,34.8c1,16.5,2,33.1,3,49.6
		c0,0.2,0,0.3,0,0.5c0.7,18.9,1.3,37.8,2,56.8c-7.6-4.9-15.3-9.8-22.8-14.9c-0.9-0.6-1-2.7-1.1-4.1c-0.4-15.8-0.7-31.5-1.1-47.3
		c-0.6-23.6-1.3-47.1-2-70.7C109.8,198.8,109.5,191.7,109.2,184.6z"/>
	<path class="st9" d="M197,244.9c1,20.5,2,41,3,61.5c0.6,11.9,1.3,23.8,2,35.7c0.7,13.4,1.3,26.8,2.1,40.2c0.2,2.9,1.3,5.7,1.9,8.5
		c-8.7-6.2-17.3-12.5-26-18.7c0.2-6,0.5-12.1,0.6-18.1c0-1.1-0.4-2.3-0.5-3.4c-0.4-15.9-0.7-31.9-1.2-47.8c-0.6-20-1.3-40.1-2-60.1
		c-0.1-3.4-0.7-6.8-1.2-11.5C183.6,236.2,190.3,240.5,197,244.9z"/>
	<path class="st8" d="M293,210.9c-10.5,2.9-20.9,6-31.4,8.8c-13,3.5-26,6.7-38.9,10.1c-7.5,1.9-15,4.1-22.6,5.7
		c-1.9,0.4-4.7-0.4-6.3-1.6c-20.8-15-41.5-30.2-62.3-45.4c-1.4-1.1-2.7-2.4-4.9-4.5c5-1.2,9.1-2.1,13.1-3.2c2.2-0.6,4.2-1.8,6.3-2.8
		c1.8-0.2,3.6-0.2,5.4-0.6c5.1-1.2,10.2-2.5,15.4-3.8c3.2-0.5,6.5-0.7,9.7-1.5c20.3-4.7,40.6-9.5,60.8-14.4c1-0.2,1.8-1.2,2.7-1.9
		c7.3-1.8,14.6-3.6,21.9-5.4c1.8,0,3.7,0.4,5.3,0.1c5.7-1.3,11.4-3,17.1-4.3c1.1-0.3,2.4,0.3,3.6,0.5c0.4,6.6,0.6,13.2,1.2,19.8
		C290.4,181.3,291.7,196.1,293,210.9z"/>
	<path class="st8" d="M98,139.8C92,121.2,86,102.6,80,84c-3.5-10.9-6.9-21.8-10.3-32.7c-0.4-1.2-0.4-2.5-0.7-3.9
		c9-0.9,17.5-1.7,26.1-2.5c14.8-1.3,29.6-2.7,44.4-3.9c9.2-0.8,18.5-1.4,27.7-2.1c15.1-1.3,30.3-2.7,45.4-3.9
		c7.1-0.6,14.2-0.8,21.3-1.1c-10,6-18.7,13.4-24,24c-8,5.5-16,10.8-23.9,16.5c-11.7,8.5-23.4,17.3-34.9,26
		c-10.5,8-20.9,16.2-31.4,24.2C112.6,129.8,105.2,134.7,98,139.8z"/>
	<path class="st6" d="M210,57.8c5.4-10.7,14-18,24-24c1.6-0.3,3.2-0.7,4.9-1c3.9-0.7,6,0.7,7.3,4.7c10.2,31.2,20.5,62.4,30.8,93.6
		c0.5,1.5,0.8,3.1,1.2,4.8c-7.4,2.1-14.3,4.1-21.2,6c-7,1.3-14,2.6-20.9,3.9c-23.7,5.3-47.5,10.5-71.2,15.9c-1.1,0.2-2,1.3-2.9,2
		c-0.6,0-1.3,0.1-1.9,0.1c-0.7,0.1-1.4,0.2-2.1,0.3c-0.5,0-1.1,0.1-1.6,0.1c-1.2,0.5-2.3,0.9-3.5,1.4c-0.6,0.1-1.2,0.1-1.8,0.2
		c-1,0.1-2,0.3-3,0.4c-0.5,0-1,0.1-1.6,0.1c-0.9,0.4-1.7,0.8-2.6,1.2c-0.6,0.1-1.2,0.3-1.8,0.4c-4.6,0.5-9.1,0.9-13.7,1.4
		c-1.5,0.2-2.9,0.4-4.4,0.6c1.9-1.5,3.9-2.9,5.8-4.4c11.8-8.8,23.6-17.5,35.3-26.4c13.4-10.1,26.5-20.6,40-30.6
		c3.3-2.4,3.2-4.7,2.4-8.1c-1.4-5.9-3.6-12-3.1-17.8C205.1,74.3,208,66.1,210,57.8z"/>
	<path class="st9" d="M210,57.8c-2,8.3-4.9,16.5-5.7,24.9c-0.5,5.8,1.7,11.9,3.1,17.8c0.8,3.3,0.9,5.7-2.4,8.1
		c-13.5,10-26.6,20.4-40,30.6c-11.7,8.9-23.5,17.6-35.3,26.4c-1.9,1.5-3.9,2.9-5.8,4.4c-4.3,1.2-8.5,2.7-12.9,3.5
		c-1.1,0.2-3.2-1.8-3.7-3.2c-3.3-10.1-6.3-20.3-9.4-30.4c7.3-5.1,14.7-10,21.8-15.3c10.6-7.9,20.9-16.2,31.4-24.2
		c11.6-8.8,23.2-17.5,34.9-26C193.9,68.6,202,63.3,210,57.8z"/>
	<path class="st9" d="M39.8,139.8c-3.6-6.3-8.4-12.2-10.4-19c-6.2-20.9-1.1-39.5,14.7-54.5c5.2-5,11.7-8.6,18-13.2
		c0.9,1.7,1.5,2.5,1.8,3.5c5.6,18.1,11.1,36.1,16.6,54.2c0.8,2.5,1.1,5.2,1.6,7.8c-7.3,3.9-14.7,7.5-21.9,11.7
		C53.7,134.1,47.5,138.6,39.8,139.8z"/>
	<path class="st10" d="M334.1,246c-0.4-6.1-3.1-9-9.1-9.9c-2.8-0.4-5.6-0.3-8.6-0.5c-15.8,0.3-30.2,4.8-42.3,15.1
		c-2.5,2.1-4.3,5.8-5.2,9.1c-2.1,8,0.1,15.9,3,23.3c3.8,10,10.1,17.9,21.3,19.5c11.2,1.5,20.6-2.9,27.7-11.7
		C331.5,277.7,335.3,262.6,334.1,246z M295.4,284.9c1.4-5.5,2.4-9.5,3.4-13.6c0.7-2.9,1.2-5.5-1.2-8.3c-2.6-2.9-0.7-8,3-10.2
		c1.2-0.8,2.6-1.3,3.9-1.9c5.4,1.7,7.6,5.4,5.1,10.5c-1.7,3.3-0.9,5.1,1.5,7c1.3,3.4,2.7,6.7,4.2,10.6
		C308.7,280.9,302.4,282.8,295.4,284.9z"/>
	<path class="st6" d="M293,210.9c-1.3-14.8-2.6-29.6-3.8-44.3c-0.5-6.6-0.8-13.2-1.2-19.8c27.4,14.4,54.7,28.8,82.1,43.2
		c-0.1,0.5-0.2,0.9-0.3,1.4c-9.9,2.6-19.7,5.1-29.6,7.7c-14.3,3.7-28.5,7.5-42.8,11.2C296,210.6,294.5,210.7,293,210.9z"/>
	<path class="st6" d="M39.8,139.8c7.7-1.2,13.8-5.7,20.4-9.5c7.2-4.1,14.6-7.8,21.9-11.7c1.9,5.2,3.9,10.4,5.6,15.7
		c3.5,10.9,6.7,21.8,10.4,33.7c-4.9-0.5-9.2-0.5-13.3-1.4c-16.6-3.5-31.3-10.8-42.9-23.6C41,142.2,40.5,140.9,39.8,139.8z"/>
	<path class="st11" d="M156.4,164.2c0.5,0,1.1-0.1,1.6-0.1c0.7-0.1,1.4-0.2,2.1-0.3c0.6,0,1.3-0.1,1.9-0.1c5.9,3.6,6.7,5.3,4.8,9.8
		c-5.1,1.3-10.2,2.6-15.4,3.8c-1.7,0.4-3.6,0.4-5.4,0.6c-1.3-3.3-2.6-6.7-4-10c0.6-0.1,1.2-0.3,1.8-0.4c0.9-0.4,1.7-0.8,2.6-1.2
		c0.5,0,1-0.1,1.6-0.1c1-0.1,2-0.3,3-0.4c0.6-0.1,1.2-0.1,1.9-0.2C154,165.2,155.2,164.7,156.4,164.2z"/>
	<path class="st11" d="M236.1,145.8c7-1.3,14-2.6,20.9-3.9c1.6,2.9,3.3,5.7,4.9,8.6c-7.3,1.8-14.6,3.6-21.9,5.4
		C238.7,152.5,237.4,149.2,236.1,145.8z"/>
	<path class="st7" d="M236.1,145.8c1.3,3.3,2.6,6.7,3.9,10c-0.9,0.6-1.7,1.6-2.7,1.9c-20.3,4.9-40.5,9.7-60.8,14.4
		c-3.2,0.7-6.5,1-9.7,1.5c2-4.6,1.1-6.3-4.8-9.8c1-0.7,1.9-1.8,2.9-2C188.6,156.4,212.3,151.1,236.1,145.8z"/>
	<path class="st7" d="M151,165.9c-1,0.1-2,0.3-3,0.4C149,166.1,150,166,151,165.9z"/>
	<path class="st7" d="M156.4,165.2c-1.2,0.5-2.3,0.9-3.5,1.4C154,166.2,155.2,165.7,156.4,165.2z"/>
	<path class="st7" d="M146.4,166.3c-0.9,0.4-1.7,0.8-2.6,1.2C144.7,167.1,145.6,166.7,146.4,166.3z"/>
	<path class="st7" d="M160,163.8c-0.7,0.1-1.4,0.2-2.1,0.3C158.7,164,159.3,163.9,160,163.8z"/>
	<path class="st6" d="M298.7,271.3c0.7-2.9,1.2-5.5-1.2-8.3c-2.6-2.9-0.7-8,3-10.2c1.2-0.8,2.6-1.3,3.9-1.9
		c5.4,1.7,7.6,5.4,5.1,10.5c-1.7,3.3-0.9,5.1,1.5,7c1.3,3.4,2.7,6.7,4.2,10.6c-6.5,1.9-12.8,3.8-19.8,6
		C296.7,279.5,297.8,275.4,298.7,271.3z"/>
</g>
</svg>
