<svg id="Layer_1" data-name="Layer 1" xmlns="http://www.w3.org/2000/svg" viewBox="0 0 2561 1000.24"><defs><style>.cls-1{fill:#62af76;}.cls-1,.cls-10,.cls-2,.cls-3,.cls-5,.cls-6,.cls-7,.cls-8,.cls-9{stroke:#000;stroke-miterlimit:10;}.cls-2{fill:none;}.cls-3{fill:#4caf50;}.cls-4{fill:#3d993d;}.cls-5{fill:#7f7f7f;}.cls-6{fill:#ddd;}.cls-7{fill:#9e9e9e;}.cls-8{fill:#996439;}.cls-9{fill:#17ff5b;}.cls-10{fill:#30c662;}</style></defs><title>trees</title><g id="horizon"><g id="circle"><path class="cls-1" d="M183.5,1166A108.5,108.5,0,0,1,0,1244.4l.5-157.3a108.51,108.51,0,0,1,182.2,65.8A113.75,113.75,0,0,1,183.5,1166Z" transform="translate(0.5 -599.76)"/><circle class="cls-1" cx="250.5" cy="638.24" r="108.5"/><circle class="cls-1" cx="391.5" cy="566.24" r="108.5"/><circle class="cls-1" cx="564.5" cy="600.24" r="108.5"/><circle class="cls-1" cx="717.5" cy="675.24" r="108.5"/><circle class="cls-1" cx="849.5" cy="539.24" r="108.5"/><circle class="cls-1" cx="1010.5" cy="630.24" r="108.5"/><circle class="cls-1" cx="1184.5" cy="584.24" r="108.5"/><circle class="cls-1" cx="2081.5" cy="584.24" r="108.5"/><circle class="cls-1" cx="2256.5" cy="644.24" r="108.5"/><path class="cls-1" d="M2560,1083.9l-.5,206.3a108.47,108.47,0,1,1,.5-206.3Z" transform="translate(0.5 -599.76)"/><circle class="cls-1" cx="1261" cy="399.74" r="119"/><circle class="cls-1" cx="1550" cy="338.74" r="129"/><line class="cls-2" x1="1" y1="487.34" x2="0.5" y2="644.64"/><line class="cls-2" x1="2560.5" y1="484.14" x2="2560" y2="690.44"/></g></g><g id="field"><polygon class="cls-3" points="1 632.74 1 999.74 2560 999.74 2560 632.74 32.8 632.74 1 632.74"/></g><g id="Layer_3" data-name="Layer 3"><ellipse class="cls-4" cx="316.6" cy="801.24" rx="93.5" ry="24.3"/><ellipse class="cls-4" cx="436.4" cy="684.94" rx="63.6" ry="16.6"/><ellipse class="cls-4" cx="1042.8" cy="677.74" rx="63.6" ry="16.6"/><ellipse class="cls-4" cx="1517.4" cy="677.74" rx="63.6" ry="16.6"/><ellipse class="cls-4" cx="2130.8" cy="720.74" rx="63.6" ry="16.6"/><ellipse class="cls-4" cx="2406.5" cy="828.54" rx="110.9" ry="28.9"/></g><g id="Mountains"><g id="mountain"><polygon class="cls-5" points="1726 86.64 1726 119.44 1701.3 112.84 1699.8 93.54 1692.6 3.24 1726 86.64"/><polygon class="cls-5" points="1699.6 632.74 1726 473.94 1697.3 429.14 1678.8 400.24 1696.5 353.74 1726 275.94 1703 134.44 1701.3 112.84 1726 119.44 1726 86.64 1944.7 632.74 1699.6 632.74"/><polygon class="cls-6" points="1701.3 112.84 1678.8 143.64 1646.3 107.64 1646.3 107.64 1692.6 3.24 1699.8 93.54 1701.3 112.84"/><polygon class="cls-7" points="1697.3 429.14 1726 473.94 1699.6 632.74 1413 632.74 1646.3 107.64 1678.8 143.64 1701.3 112.84 1703 134.44 1726 275.94 1696.5 353.74 1678.8 400.24 1697.3 429.14"/></g><g id="mountain-2" data-name="mountain"><polygon class="cls-5" points="1401 158.14 1401 186.74 1379.5 180.94 1378.2 164.14 1372 85.74 1401 158.14"/><polygon class="cls-5" points="1378 632.74 1401 494.74 1376.1 455.84 1360 430.74 1375.3 390.34 1401 322.74 1381 199.74 1379.5 180.94 1401 186.74 1401 158.14 1591 632.74 1378 632.74"/><polygon class="cls-6" points="1379.5 180.94 1360 207.74 1331.7 176.44 1331.7 176.44 1372 85.74 1378.2 164.14 1379.5 180.94"/><polygon class="cls-7" points="1376.1 455.84 1401 494.74 1378 632.74 1129 632.74 1331.7 176.44 1360 207.74 1379.5 180.94 1381 199.74 1401 322.74 1375.3 390.34 1360 430.74 1376.1 455.84"/><polygon class="cls-5" points="1962 236.64 1962 260.54 1944.1 255.74 1943 241.74 1937.8 176.24 1962 236.64"/><polygon class="cls-5" points="1942.8 632.74 1962 517.54 1941.2 485.04 1927.8 464.14 1940.6 430.44 1962 374.04 1945.3 271.34 1944.1 255.74 1962 260.54 1962 236.64 2120.6 632.74 1942.8 632.74"/><polygon class="cls-6" points="1944.1 255.74 1927.8 278.04 1904.2 251.94 1904.2 251.94 1937.8 176.24 1943 241.74 1944.1 255.74"/><polygon class="cls-7" points="1941.2 485.04 1962 517.54 1942.8 632.74 1735 632.74 1904.2 251.94 1927.8 278.04 1944.1 255.74 1945.3 271.34 1962 374.04 1940.6 430.44 1927.8 464.14 1941.2 485.04"/></g></g><g id="Trees"><g id="tree_copy_2" data-name="tree copy 2"><path class="cls-8" d="M1019.1,1185.3v92.2h-9.2v-90.2c1.4.1,2.8.1,4.2.1h0A41.61,41.61,0,0,0,1019.1,1185.3Z" transform="translate(0.5 -599.76)"/><path class="cls-9" d="M1019.1,1185.3a28.92,28.92,0,0,1-5.1,2.1h0c-1.4,0-2.8,0-4.2-.1A91.7,91.7,0,0,1,1014,1004h0c.6.2,49,16.6,50.4,91.9C1065.4,1157,1032.1,1179,1019.1,1185.3Z" transform="translate(0.5 -599.76)"/><path class="cls-10" d="M1105.9,1095.7a91.76,91.76,0,0,1-86.9,91.6v-2c13-6.3,46.4-28.3,45.3-89.4-1.4-75.3-49.8-91.7-50.4-91.9h.2A91.78,91.78,0,0,1,1105.9,1095.7Z" transform="translate(0.5 -599.76)"/><path class="cls-8" d="M1476.1,1185.3v92.2h-9.2v-90.2c1.4.1,2.8.1,4.2.1h0A41.61,41.61,0,0,0,1476.1,1185.3Z" transform="translate(0.5 -599.76)"/><path class="cls-9" d="M1476.1,1185.3a28.92,28.92,0,0,1-5.1,2.1h0c-1.4,0-2.8,0-4.2-.1A91.7,91.7,0,0,1,1471,1004h0c.6.2,49,16.6,50.4,91.9C1522.4,1157,1489.1,1179,1476.1,1185.3Z" transform="translate(0.5 -599.76)"/><path class="cls-10" d="M1562.9,1095.7a91.76,91.76,0,0,1-86.9,91.6v-2c13-6.3,46.4-28.3,45.3-89.4-1.4-75.3-49.8-91.7-50.4-91.9h.2A91.78,91.78,0,0,1,1562.9,1095.7Z" transform="translate(0.5 -599.76)"/><path class="cls-8" d="M2107.1,1228.3v92.2h-9.2v-90.2c1.4.1,2.8.1,4.2.1h0A41.61,41.61,0,0,0,2107.1,1228.3Z" transform="translate(0.5 -599.76)"/><path class="cls-9" d="M2107.1,1228.3a28.92,28.92,0,0,1-5.1,2.1h0c-1.4,0-2.8,0-4.2-.1A91.7,91.7,0,0,1,2102,1047h0c.6.2,49,16.6,50.4,91.9C2153.4,1200,2120.1,1222,2107.1,1228.3Z" transform="translate(0.5 -599.76)"/><path class="cls-10" d="M2193.9,1138.7a91.76,91.76,0,0,1-86.9,91.6v-2c13-6.3,46.4-28.3,45.3-89.4-1.4-75.3-49.8-91.7-50.4-91.9h.2A91.78,91.78,0,0,1,2193.9,1138.7Z" transform="translate(0.5 -599.76)"/></g><g id="tree_copy_3" data-name="tree copy 3"><path class="cls-8" d="M402.3,1183.8v107.7H391.5V1186.1c1.6.1,3.2.1,4.9.1h0A41.87,41.87,0,0,0,402.3,1183.8Z" transform="translate(0.5 -599.76)"/><path class="cls-9" d="M402.3,1183.8c-3.6,1.7-5.8,2.4-5.9,2.5h0c-1.6,0-3.2,0-4.9-.1a107.11,107.11,0,0,1,4.8-214.1h0c.7.2,57.2,19.4,58.8,107.4C456.5,1150.7,417.5,1176.5,402.3,1183.8Z" transform="translate(0.5 -599.76)"/><path class="cls-10" d="M503.7,1079.1a107.15,107.15,0,0,1-101.5,107v-2.3c15.2-7.3,54.2-33.1,52.9-104.4-1.6-88-58.1-107.2-58.8-107.4h.3A107.1,107.1,0,0,1,503.7,1079.1Z" transform="translate(0.5 -599.76)"/></g><g id="tree"><path class="cls-8" d="M270.5,1199.9v199.6h-20V1204.3c3,.1,6,.2,9,.2h0A89,89,0,0,0,270.5,1199.9Z" transform="translate(0.5 -599.76)"/><path class="cls-9" d="M270.5,1199.9a97.17,97.17,0,0,1-11,4.6h0c-3,0-6-.1-9-.2-105.2-4.9-189-91.8-189-198.3,0-109.5,88.6-198.2,198-198.5h0c1.3.4,106,36,109,199C370.9,1138.7,298.7,1186.4,270.5,1199.9Z" transform="translate(0.5 -599.76)"/><path class="cls-10" d="M458.5,1006c0,106.1-83.2,192.8-188,198.2v-4.3c28.2-13.6,100.4-61.3,98-193.4-3-163-107.7-198.6-109-199h.5C369.6,807.5,458.5,896.4,458.5,1006Z" transform="translate(0.5 -599.76)"/></g><g id="tree_copy" data-name="tree copy"><path class="cls-8" d="M2358.7,1243.6v177.8h-17.8V1247.5c2.7.1,5.3.2,8,.2h0A103.82,103.82,0,0,0,2358.7,1243.6Z" transform="translate(0.5 -599.76)"/><path class="cls-9" d="M2358.7,1243.6a103.82,103.82,0,0,1-9.8,4.1h0c-2.7,0-5.4-.1-8-.2-93.7-4.4-168.4-81.8-168.4-176.6,0-97.5,78.9-176.6,176.4-176.8h0c1.1.4,94.4,32.1,97.1,177.3C2448.1,1189,2383.7,1231.5,2358.7,1243.6Z" transform="translate(0.5 -599.76)"/><path class="cls-10" d="M2526.1,1070.8c0,94.5-74.2,171.7-167.5,176.6v-3.8c25.1-12.1,89.5-54.6,87.3-172.3-2.7-145.2-96-176.9-97.1-177.3h.4C2447,894,2526.1,973.2,2526.1,1070.8Z" transform="translate(0.5 -599.76)"/></g></g></svg>