<svg xmlns="http://www.w3.org/2000/svg" viewBox="0 0 2561 1000.24"><defs><style>.cls-1{fill:#62af76;}.cls-1,.cls-2,.cls-3,.cls-4,.cls-5,.cls-6,.cls-7,.cls-8,.cls-9{stroke:#000;stroke-miterlimit:10;}.cls-2{fill:none;}.cls-3{fill:#4caf50;}.cls-4{fill:#7f7f7f;}.cls-5{fill:#ddd;}.cls-6{fill:#9e9e9e;}.cls-7{fill:#996439;}.cls-8{fill:#17ff5b;}.cls-9{fill:#30c662;}</style></defs><title>mountains</title><g id="horizon"><g id="circle"><path class="cls-1" d="M183.5,1166A108.5,108.5,0,0,1,0,1244.4l.5-157.27a108.48,108.48,0,0,1,183,78.87Z" transform="translate(0.5 -599.76)"/><circle class="cls-1" cx="250.5" cy="638.24" r="108.5"/><circle class="cls-1" cx="391.5" cy="566.24" r="108.5"/><circle class="cls-1" cx="564.5" cy="600.24" r="108.5"/><circle class="cls-1" cx="717.5" cy="675.24" r="108.5"/><circle class="cls-1" cx="849.5" cy="539.24" r="108.5"/><circle class="cls-1" cx="1010.5" cy="630.24" r="108.5"/><circle class="cls-1" cx="1184.5" cy="584.24" r="108.5"/><circle class="cls-1" cx="2081.5" cy="584.24" r="108.5"/><circle class="cls-1" cx="2256.5" cy="644.24" r="108.5"/><path class="cls-1" d="M2560,1083.94l-.5,206.28a108.5,108.5,0,1,1,.5-206.28Z" transform="translate(0.5 -599.76)"/><circle class="cls-1" cx="1261" cy="399.74" r="119"/><circle class="cls-1" cx="1550" cy="338.74" r="129"/><line class="cls-2" x1="1" y1="487.37" x2="0.5" y2="644.64"/><line class="cls-2" x1="2560.5" y1="484.18" x2="2560" y2="690.46"/></g></g><g id="field"><polygon class="cls-3" points="1 632.74 1 999.74 2560 999.74 2560 632.74 32.81 632.74 1 632.74"/></g><g id="Mountains"><g id="mountain"><polygon class="cls-4" points="1726.02 86.59 1726.02 119.47 1701.31 112.82 1699.77 93.51 1692.65 3.24 1726.02 86.59"/><polygon class="cls-4" points="1699.56 632.74 1726.02 473.92 1697.32 429.12 1678.84 400.27 1696.49 353.76 1726.02 275.98 1703.01 134.43 1701.31 112.82 1726.02 119.47 1726.02 86.59 1944.68 632.74 1699.56 632.74"/><polygon class="cls-5" points="1701.31 112.82 1678.84 143.64 1646.28 107.59 1646.3 107.59 1692.65 3.24 1699.77 93.51 1701.31 112.82"/><polygon class="cls-6" points="1697.32 429.12 1726.02 473.92 1699.56 632.74 1413 632.74 1646.28 107.59 1678.84 143.64 1701.31 112.82 1703.01 134.43 1726.02 275.98 1696.49 353.76 1678.84 400.27 1697.32 429.12"/></g><g id="mountain-2" data-name="mountain"><polygon class="cls-4" points="1401 158.17 1401 186.74 1379.52 180.96 1378.19 164.18 1372 85.74 1401 158.17"/><polygon class="cls-4" points="1378 632.74 1401 494.74 1376.06 455.81 1360 430.74 1375.34 390.33 1401 322.74 1381 199.74 1379.52 180.96 1401 186.74 1401 158.17 1591 632.74 1378 632.74"/><polygon class="cls-5" points="1379.52 180.96 1360 207.74 1331.71 176.42 1331.72 176.42 1372 85.74 1378.19 164.18 1379.52 180.96"/><polygon class="cls-6" points="1376.06 455.81 1401 494.74 1378 632.74 1129 632.74 1331.71 176.42 1360 207.74 1379.52 180.96 1381 199.74 1401 322.74 1375.34 390.33 1360 430.74 1376.06 455.81"/><polygon class="cls-4" points="1962 236.68 1962 260.52 1944.07 255.7 1942.96 241.7 1937.8 176.24 1962 236.68"/><polygon class="cls-4" points="1942.8 632.74 1962 517.57 1941.18 485.08 1927.78 464.16 1940.58 430.43 1962 374.02 1945.31 271.37 1944.07 255.7 1962 260.52 1962 236.68 2120.56 632.74 1942.8 632.74"/><polygon class="cls-5" points="1944.07 255.7 1927.78 278.05 1904.17 251.91 1904.18 251.91 1937.8 176.24 1942.96 241.7 1944.07 255.7"/><polygon class="cls-6" points="1941.18 485.08 1962 517.57 1942.8 632.74 1735 632.74 1904.17 251.91 1927.78 278.05 1944.07 255.7 1945.31 271.37 1962 374.02 1940.58 430.43 1927.78 464.16 1941.18 485.08"/></g></g><g id="Trees"><g id="tree_copy_2" data-name="tree copy 2"><path class="cls-7" d="M1019.05,1185.3v92.19h-9.24V1187.3c1.38.07,2.77.1,4.16.1h0A38.54,38.54,0,0,0,1019.05,1185.3Z" transform="translate(0.5 -599.76)"/><path class="cls-8" d="M1019.05,1185.3a38.54,38.54,0,0,1-5.07,2.1h0c-1.39,0-2.78,0-4.16-.1A91.7,91.7,0,0,1,1014,1004h0c.58.19,49,16.62,50.35,91.93C1065.44,1157,1032.06,1179,1019.05,1185.3Z" transform="translate(0.5 -599.76)"/><path class="cls-9" d="M1105.9,1095.7a91.69,91.69,0,0,1-86.85,91.57v-2c13-6.26,46.39-28.31,45.28-89.37-1.38-75.31-49.77-91.74-50.35-91.93h.22A91.7,91.7,0,0,1,1105.9,1095.7Z" transform="translate(0.5 -599.76)"/><path class="cls-7" d="M1476.05,1185.3v92.19h-9.24V1187.3c1.38.07,2.77.1,4.16.1h0A38.54,38.54,0,0,0,1476.05,1185.3Z" transform="translate(0.5 -599.76)"/><path class="cls-8" d="M1476.05,1185.3a38.54,38.54,0,0,1-5.07,2.1h0c-1.39,0-2.78,0-4.16-.1A91.7,91.7,0,0,1,1471,1004h0c.58.19,49,16.62,50.35,91.93C1522.44,1157,1489.06,1179,1476.05,1185.3Z" transform="translate(0.5 -599.76)"/><path class="cls-9" d="M1562.9,1095.7a91.69,91.69,0,0,1-86.85,91.57v-2c13-6.26,46.39-28.31,45.28-89.37-1.38-75.31-49.77-91.74-50.35-91.93h.22A91.7,91.7,0,0,1,1562.9,1095.7Z" transform="translate(0.5 -599.76)"/><path class="cls-7" d="M2107.05,1228.3v92.19h-9.24V1230.3c1.38.07,2.77.1,4.16.1h0A38.54,38.54,0,0,0,2107.05,1228.3Z" transform="translate(0.5 -599.76)"/><path class="cls-8" d="M2107.05,1228.3a38.54,38.54,0,0,1-5.07,2.1h0c-1.39,0-2.78,0-4.16-.1A91.7,91.7,0,0,1,2102,1047h0c.58.19,49,16.62,50.35,91.93C2153.44,1200,2120.06,1222,2107.05,1228.3Z" transform="translate(0.5 -599.76)"/><path class="cls-9" d="M2193.9,1138.7a91.69,91.69,0,0,1-86.85,91.57v-2c13-6.26,46.39-28.31,45.28-89.37-1.38-75.31-49.77-91.74-50.35-91.93h.22A91.7,91.7,0,0,1,2193.9,1138.7Z" transform="translate(0.5 -599.76)"/></g><g id="tree_copy_3" data-name="tree copy 3"><path class="cls-7" d="M402.29,1183.78v107.69h-10.8V1186.11c1.61.09,3.23.12,4.86.13h0A48,48,0,0,0,402.29,1183.78Z" transform="translate(0.5 -599.76)"/><path class="cls-8" d="M402.29,1183.78a48,48,0,0,1-5.94,2.46h0c-1.63,0-3.25,0-4.86-.13A107.12,107.12,0,0,1,396.35,972h0c.68.23,57.21,19.42,58.82,107.39C456.48,1150.71,417.48,1176.47,402.29,1183.78Z" transform="translate(0.5 -599.76)"/><path class="cls-9" d="M503.74,1079.12a107.12,107.12,0,0,1-101.45,107v-2.31c15.19-7.31,54.19-33.07,52.88-104.39-1.61-88-58.14-107.16-58.82-107.39h.27A107.12,107.12,0,0,1,503.74,1079.12Z" transform="translate(0.5 -599.76)"/></g><g id="tree"><path class="cls-7" d="M270.5,1200V1399.5h-20V1204.27c3,.15,6,.22,9,.23h0A88.23,88.23,0,0,0,270.5,1200Z" transform="translate(0.5 -599.76)"/><path class="cls-8" d="M270.5,1200a88.23,88.23,0,0,1-11,4.55h0c-3,0-6-.08-9-.23-105.22-5-189-91.82-189-198.27,0-109.46,88.6-198.23,198-198.5h0c1.26.42,106,36,109,199C370.92,1138.66,298.65,1186.4,270.5,1200Z" transform="translate(0.5 -599.76)"/><path class="cls-9" d="M458.5,1006c0,106.11-83.25,192.77-188,198.22V1200c28.15-13.55,100.42-61.29,98-193.45-3-163-107.73-198.58-109-199H260C369.63,807.5,458.5,896.37,458.5,1006Z" transform="translate(0.5 -599.76)"/></g><g id="tree_copy" data-name="tree copy"><path class="cls-7" d="M2358.66,1243.59v177.75h-17.81V1247.43c2.65.14,5.32.2,8,.21h0A78.16,78.16,0,0,0,2358.66,1243.59Z" transform="translate(0.5 -599.76)"/><path class="cls-8" d="M2358.66,1243.59a78.16,78.16,0,0,1-9.79,4.05h0c-2.69,0-5.36-.07-8-.21a176.82,176.82,0,0,1,8-353.43h0c1.13.37,94.43,32,97.09,177.26C2448.11,1189,2383.74,1231.52,2358.66,1243.59Z" transform="translate(0.5 -599.76)"/><path class="cls-9" d="M2526.13,1070.82a176.82,176.82,0,0,1-167.47,176.57v-3.8c25.08-12.07,89.45-54.6,87.3-172.33-2.66-145.21-96-176.89-97.09-177.26h.44A176.81,176.81,0,0,1,2526.13,1070.82Z" transform="translate(0.5 -599.76)"/></g></g></svg>